<?xml version="1.0" standalone="no"?>
<!DOCTYPE svg PUBLIC "-//W3C//DTD SVG 20010904//EN"
 "http://www.w3.org/TR/2001/REC-SVG-20010904/DTD/svg10.dtd">
<svg version="1.0" xmlns="http://www.w3.org/2000/svg"
 width="540.000000pt" height="240.000000pt" viewBox="0 0 540.000000 240.000000"
 preserveAspectRatio="xMidYMid meet">
<metadata>
Created by potrace 1.10, written by Peter Selinger 2001-2011
</metadata>
<g transform="translate(0.000000,240.000000) scale(0.100000,-0.100000)"
fill="#000000" stroke="none">
<path d="M923 2344 c-3 -8 -18 -14 -33 -14 -15 0 -33 -7 -40 -15 -8 -9 -30
-15 -57 -15 -30 0 -45 -5 -49 -15 -4 -8 -17 -15 -30 -15 -14 0 -27 -7 -30 -15
-4 -8 -17 -15 -30 -15 -14 0 -27 -7 -30 -15 -4 -8 -16 -15 -28 -15 -13 0 -40
-19 -66 -45 -24 -25 -51 -45 -60 -45 -18 0 -180 -157 -180 -174 0 -6 -20 -34
-45 -63 -25 -28 -45 -58 -45 -65 0 -8 -13 -27 -30 -43 -16 -16 -30 -39 -30
-51 0 -12 -7 -24 -15 -28 -8 -3 -15 -16 -15 -30 0 -13 -7 -26 -15 -30 -10 -3
-15 -19 -15 -45 0 -25 -5 -41 -15 -45 -11 -4 -15 -21 -15 -60 0 -39 -4 -55
-15 -60 -13 -5 -15 -40 -15 -236 0 -196 2 -231 15 -236 11 -5 15 -21 15 -60 0
-39 4 -56 15 -60 10 -4 15 -20 15 -45 0 -26 5 -42 15 -45 8 -4 15 -18 15 -34
0 -16 7 -30 15 -34 8 -3 15 -13 15 -22 0 -9 13 -33 30 -54 16 -21 30 -43 30
-50 0 -6 14 -23 30 -37 17 -13 30 -33 30 -43 0 -20 122 -143 148 -149 9 -2 42
-30 75 -62 32 -32 67 -59 78 -59 11 0 22 -7 25 -15 4 -8 16 -15 28 -15 12 0
33 -13 46 -30 20 -23 33 -29 63 -30 24 0 40 -5 43 -15 4 -8 18 -15 34 -15 16
0 30 -7 34 -15 3 -10 19 -15 45 -15 25 0 41 -5 44 -15 8 -20 526 -19 534 1 3
9 23 14 58 14 34 0 57 5 65 15 7 8 23 15 35 15 13 0 26 7 29 16 8 22 9 21 -15
43 -12 11 -19 27 -16 35 3 8 0 20 -8 26 -11 9 -17 7 -27 -9 -9 -14 -23 -21
-46 -21 -20 0 -35 -6 -38 -15 -5 -12 -28 -15 -120 -15 -93 0 -116 -3 -120 -15
-9 -21 -119 -21 -128 0 -4 12 -26 15 -105 15 -79 0 -100 3 -105 15 -4 11 -21
15 -60 15 -39 0 -55 4 -60 15 -3 8 -15 15 -26 15 -11 0 -23 7 -26 15 -4 8 -17
15 -30 15 -14 0 -27 7 -30 15 -4 8 -17 15 -29 15 -14 0 -34 13 -48 30 -14 16
-34 30 -44 30 -21 0 -243 223 -243 244 0 8 -14 30 -30 48 -16 18 -30 40 -30
49 0 9 -7 19 -15 23 -8 3 -15 17 -15 31 0 16 -6 25 -15 25 -11 0 -15 11 -15
40 0 27 -5 43 -15 46 -11 5 -15 21 -15 60 0 39 -4 56 -15 60 -23 9 -23 509 0
518 10 3 15 19 15 45 0 25 5 41 15 45 10 3 15 19 15 45 0 25 5 41 15 45 8 3
15 14 15 24 0 11 7 25 15 32 8 7 15 20 15 29 0 9 20 37 45 61 25 24 45 51 45
60 0 20 162 180 181 180 8 0 34 20 59 45 25 24 52 44 61 45 9 0 22 7 29 15 7
8 23 15 35 15 13 0 25 7 29 15 3 9 19 15 41 15 22 0 38 6 41 15 4 10 20 15 45
15 24 0 41 6 47 16 8 14 41 16 272 17 234 0 264 -2 272 -17 7 -12 23 -16 62
-16 39 0 55 -4 60 -15 3 -8 16 -15 30 -15 13 0 26 -7 30 -15 3 -9 18 -15 39
-15 24 0 39 -8 57 -30 14 -16 35 -29 46 -30 12 0 40 -20 63 -45 23 -25 49 -45
58 -45 17 0 153 -136 153 -153 0 -5 20 -32 45 -60 25 -29 45 -59 45 -68 0 -9
7 -19 15 -23 8 -3 15 -16 15 -30 0 -13 7 -26 15 -30 9 -3 15 -19 15 -41 0 -22
6 -38 15 -41 11 -5 15 -23 15 -75 0 -53 4 -71 15 -75 13 -5 15 -90 15 -680 l0
-674 60 0 60 0 0 670 c0 587 -2 671 -15 676 -11 5 -15 22 -15 64 0 42 -4 59
-15 64 -10 3 -15 19 -15 45 0 25 -5 41 -15 45 -8 3 -15 16 -15 30 0 13 -7 26
-15 30 -8 3 -15 16 -15 30 0 13 -7 26 -15 30 -8 3 -15 16 -15 30 0 13 -7 26
-15 30 -8 3 -15 13 -15 23 0 10 -27 46 -60 80 -33 34 -60 69 -60 78 0 18 -38
54 -57 55 -7 0 -40 27 -74 60 -33 33 -66 60 -73 60 -6 0 -26 14 -44 30 -18 17
-42 30 -53 30 -11 0 -22 7 -25 15 -4 8 -17 15 -30 15 -14 0 -27 7 -30 15 -4 8
-17 15 -30 15 -14 0 -27 7 -30 15 -4 8 -18 15 -34 15 -16 0 -30 7 -34 15 -4
11 -21 15 -60 15 -37 0 -56 4 -59 14 -8 21 -526 21 -534 0z"/>
<path d="M3953 2344 c-3 -10 -21 -14 -59 -14 -39 0 -56 -4 -60 -15 -4 -8 -17
-15 -30 -15 -14 0 -27 -7 -30 -15 -4 -10 -20 -15 -44 -15 -21 0 -43 -7 -50
-15 -7 -8 -20 -15 -29 -15 -10 0 -30 -13 -46 -30 -16 -16 -36 -30 -45 -30 -9
0 -29 -13 -45 -30 -16 -16 -39 -30 -51 -30 -15 0 -24 -8 -28 -25 -4 -14 -11
-25 -17 -25 -15 0 -129 -112 -129 -127 0 -7 -20 -33 -45 -59 -25 -25 -45 -55
-45 -66 0 -10 -13 -31 -30 -45 -17 -14 -30 -34 -30 -48 0 -12 -7 -25 -15 -29
-8 -3 -15 -16 -15 -30 0 -13 -7 -26 -15 -30 -10 -3 -15 -19 -15 -45 0 -25 -5
-41 -15 -45 -11 -4 -15 -21 -15 -60 0 -39 -4 -55 -15 -60 -13 -5 -15 -40 -15
-236 0 -196 2 -231 15 -236 11 -5 15 -21 15 -60 0 -39 4 -56 15 -60 8 -4 15
-18 15 -34 0 -16 7 -30 15 -34 9 -3 15 -19 15 -41 0 -22 6 -38 15 -41 8 -4 15
-17 15 -29 0 -14 13 -34 30 -48 17 -14 30 -34 30 -44 0 -11 27 -47 60 -82 33
-35 60 -72 60 -82 0 -12 7 -19 20 -19 11 0 58 -38 111 -90 50 -49 100 -90 111
-90 10 0 21 -7 24 -15 4 -8 16 -15 28 -15 11 0 34 -14 50 -30 21 -22 39 -30
63 -30 21 0 36 -6 39 -15 4 -10 20 -15 45 -15 26 0 42 -5 45 -15 4 -10 20 -15
49 -15 28 0 45 -5 48 -14 9 -22 465 -23 473 -1 5 11 21 15 60 15 39 0 56 4 60
15 4 8 18 15 34 15 16 0 30 7 34 15 3 10 19 15 43 15 30 1 43 7 63 30 13 17
34 30 46 30 12 0 24 7 28 15 3 8 15 15 26 15 12 0 33 14 47 30 13 17 32 30 41
30 10 1 49 31 89 68 l71 67 -42 42 -43 42 -20 -23 c-12 -13 -24 -33 -28 -45
-3 -12 -11 -21 -16 -21 -6 0 -34 -22 -63 -50 -29 -27 -62 -50 -73 -50 -12 0
-23 -7 -27 -15 -3 -8 -15 -15 -26 -15 -11 0 -23 -7 -26 -15 -4 -8 -18 -15 -34
-15 -16 0 -30 -7 -34 -15 -3 -8 -16 -15 -30 -15 -13 0 -26 -7 -30 -15 -3 -9
-18 -15 -39 -15 -19 0 -40 -7 -47 -15 -19 -22 -565 -22 -574 0 -3 10 -19 15
-45 15 -25 0 -41 5 -45 15 -3 9 -19 15 -41 15 -22 0 -38 6 -41 15 -4 8 -17 15
-30 15 -14 0 -27 7 -30 15 -4 8 -16 15 -28 15 -11 0 -34 14 -50 30 -16 17 -35
30 -42 30 -18 0 -244 225 -244 243 0 8 -13 29 -30 47 -16 18 -30 38 -30 45 0
7 -7 18 -15 25 -8 7 -15 23 -15 35 0 13 -7 25 -15 29 -9 3 -15 19 -15 41 0 22
-6 38 -15 41 -10 4 -15 20 -15 50 0 32 -4 44 -15 44 -13 0 -15 36 -15 265 0
227 2 266 15 271 10 4 15 20 15 45 0 26 5 42 15 45 9 4 15 19 15 39 0 24 9 44
30 67 17 18 30 41 30 51 0 10 14 30 30 44 17 13 30 32 30 42 0 21 243 265 269
269 10 2 31 16 46 33 16 16 39 29 52 29 14 0 23 6 23 15 0 9 9 15 25 15 14 0
28 7 31 15 4 8 18 15 34 15 16 0 30 7 34 15 4 11 20 15 56 15 36 0 52 4 56 15
5 13 43 15 259 15 216 0 254 -2 259 -15 4 -11 20 -15 56 -15 36 0 52 -4 56
-15 4 -8 18 -15 34 -15 16 0 30 -7 34 -15 3 -8 15 -15 26 -15 11 0 23 -7 26
-15 4 -8 17 -15 29 -15 14 0 34 -13 48 -30 14 -16 35 -30 45 -30 11 0 31 -13
44 -29 14 -16 34 -31 45 -35 30 -10 93 -69 93 -89 0 -9 20 -35 45 -58 25 -23
45 -50 45 -61 0 -11 14 -31 30 -45 17 -14 30 -34 30 -48 0 -12 7 -25 15 -29 8
-3 15 -15 15 -27 0 -13 6 -30 14 -38 22 -25 23 -67 2 -90 -19 -21 -20 -21
-783 -21 l-763 0 0 -60 0 -60 855 0 855 0 0 55 c0 40 -4 57 -15 61 -10 4 -15
20 -15 45 0 26 -5 42 -15 45 -8 4 -15 18 -15 34 0 16 -7 30 -15 34 -8 3 -15
16 -15 30 0 13 -7 26 -15 30 -8 3 -15 16 -15 30 0 13 -7 26 -15 30 -8 3 -15
15 -15 26 0 11 -7 23 -15 26 -8 4 -15 16 -15 28 0 27 -230 261 -286 291 -20
11 -39 25 -41 32 -3 7 -15 13 -27 13 -12 0 -33 13 -46 30 -14 16 -35 29 -48
30 -12 0 -25 7 -28 15 -4 8 -18 15 -34 15 -16 0 -30 7 -34 15 -3 10 -19 15
-46 15 -29 0 -40 4 -40 15 0 11 -12 15 -44 15 -28 0 -46 5 -49 14 -8 21 -495
22 -504 0z"/>
</g>
</svg>
